# xmcd
#
# Track frame offsets: 
#        150
#        18633
#        34973
#        51406
#        71561
#        91968
#        110253
#        127645
#        141393
#        154634
#        172683
#        187375
#        206318
#        223222
#        242350
#        257863
#        272573
#        287387
#        305056
#        318902
#
# Disc length: 4461 seconds
#
# Revision: 3
# Processed by: cddbd v1.5.2PL0 Copyright (c) Steve Scherf et al.
# Submitted via: ExactAudioCopy v0.99pb5
#
DISCID=21116b14
DTITLE=Various Artist - BRAVO - BEST OF  MILLENNIUM
DYEAR=2000
DGENRE=
TTITLE0=A-HA - Summer Voved On
TTITLE1=SASHA - Let Be Me The One
TTITLE2=GABRIELLE - Rise
TTITLE3=ALL SAINTS - Pure Shores
TTITLE4=DESTINY´S CHILD - Say My Name
TTITLE5=RICKY MARTIN - Private Emotion
TTITLE6=MARC ANTHONY - You Sang To Me
TTITLE7=TOM JONES and STEREOPHONICS - Mama Told Me Not To Come
TTITLE8=BOMFUNK MC´S - Freestyler
TTITLE9=ARTFUL DODGERS - Moovin Too Fast
TTITLE10=MILES -  Perfect World
TTITLE11=BAND OHNE NAMEN - Take My Heart
TTITLE12=OCEANA and HIM - 48 Stunden
TTITLE13=SABRINA SETLUR - Alles
TTITLE14=NOMANS LAND - Greensleeves
TTITLE15=MABEL - Disco Disco
TTITLE16=SCORE - Sag Mir Varum
TTITLE17=FETTES BROT - Da Draussen
TTITLE18=STFAN RAAB - Wadde Hadde Zudde da?
TTITLE19=DIE BEWOHNER - Big Brother Is O.K.
EXTD=
EXTT0=
EXTT1=
EXTT2=
EXTT3=
EXTT4=
EXTT5=
EXTT6=
EXTT7=
EXTT8=
EXTT9=
EXTT10=
EXTT11=
EXTT12=
EXTT13=
EXTT14=
EXTT15=
EXTT16=
EXTT17=
EXTT18=
EXTT19=
PLAYORDER=
